<?xml version="1.0" encoding="UTF-8" ?>
<!DOCTYPE svg PUBLIC "-//W3C//DTD SVG 1.1//EN" "http://www.w3.org/Graphics/SVG/1.1/DTD/svg11.dtd">
<svg width="922pt" height="565pt" viewBox="0 0 922 565" version="1.1" xmlns="http://www.w3.org/2000/svg">
<g id="#333333ff">
<path fill="#333333" opacity="1.00" d=" M 618.18 0.00 L 621.13 0.00 C 638.97 9.69 656.61 19.77 674.39 29.60 C 678.25 31.51 680.72 35.66 680.40 39.99 C 680.32 124.66 680.45 209.33 680.33 293.99 C 680.44 299.57 675.36 302.83 670.95 305.03 C 643.29 321.00 615.61 336.94 587.98 352.96 C 586.12 353.98 584.16 354.99 582.00 355.01 C 578.17 355.38 574.95 352.96 571.80 351.18 C 543.93 335.06 516.03 318.97 488.15 302.86 C 484.18 300.84 482.08 296.39 482.37 292.04 C 482.40 258.69 482.35 225.35 482.39 192.01 C 482.23 187.95 484.37 183.93 487.98 182.00 C 517.12 165.16 546.29 148.37 575.43 131.52 C 578.80 129.39 583.25 129.10 586.73 131.16 C 594.23 135.31 601.52 139.85 609.07 143.92 C 611.66 145.59 614.90 142.81 614.36 139.99 C 614.40 95.30 614.36 50.61 614.38 5.93 C 614.10 3.26 615.84 1.04 618.18 0.00 M 579.32 205.46 C 569.87 210.86 560.49 216.38 551.03 221.76 C 549.80 222.48 548.16 223.29 548.31 224.98 C 548.15 235.65 548.33 246.32 548.22 256.99 C 548.32 258.77 547.80 261.23 549.83 262.17 C 559.72 267.94 569.65 273.65 579.60 279.33 C 580.95 280.52 582.53 279.51 583.83 278.80 C 593.30 273.26 602.86 267.86 612.33 262.32 C 613.64 261.73 614.28 260.50 614.11 259.08 C 614.11 247.70 614.17 236.32 614.08 224.95 C 614.35 223.52 612.94 222.79 611.98 222.13 C 602.44 216.63 592.90 211.13 583.37 205.61 C 582.10 204.77 580.56 204.35 579.32 205.46 Z" />
<path fill="#333333" opacity="1.00" d=" M 89.03 131.11 C 92.14 129.38 95.23 126.99 98.97 127.11 C 102.67 127.05 105.72 129.42 108.80 131.13 C 135.26 146.38 161.72 161.60 188.19 176.82 C 191.24 178.62 194.85 180.13 196.56 183.46 C 198.20 186.35 197.83 189.79 197.90 192.98 C 197.59 236.99 197.92 281.00 197.63 325.01 C 198.16 329.06 193.33 332.28 189.82 330.12 C 172.36 320.30 155.04 310.22 137.63 300.31 C 133.87 298.33 131.54 294.21 131.76 289.97 C 131.72 268.97 131.76 247.97 131.75 226.97 C 131.91 223.16 129.74 219.49 126.42 217.65 C 119.04 213.35 111.62 209.10 104.21 204.84 C 101.01 202.93 96.90 202.87 93.70 204.81 C 86.49 208.85 79.38 213.07 72.19 217.14 C 68.50 218.97 65.86 222.78 66.02 226.98 C 65.96 248.00 66.03 269.02 66.00 290.04 C 66.24 294.22 63.96 298.32 60.24 300.25 C 42.85 310.20 25.48 320.21 8.05 330.11 C 4.91 332.05 0.19 329.66 0.21 325.88 C -0.09 309.47 0.35 293.05 0.00 276.64 L 0.00 187.17 C 0.55 183.93 2.37 180.91 5.31 179.33 C 33.19 163.21 61.14 147.20 89.03 131.11 Z" />
<path fill="#333333" opacity="1.00" d=" M 817.75 129.86 C 821.18 127.79 825.62 127.91 829.01 130.02 C 857.90 146.79 886.78 163.59 915.69 180.33 C 918.75 181.90 920.64 184.90 922.00 187.95 L 922.00 216.81 C 920.51 220.74 917.48 223.78 913.72 225.57 C 898.90 234.10 884.15 242.75 869.36 251.31 C 866.92 252.70 864.61 254.36 861.95 255.30 C 858.72 256.22 855.19 253.39 855.42 250.04 C 855.23 241.69 855.52 233.32 855.33 224.97 C 855.45 222.73 853.90 220.97 852.04 219.98 C 843.35 214.96 834.64 209.99 825.98 204.94 C 824.07 203.70 821.59 203.23 819.62 204.60 C 810.71 209.67 801.85 214.85 792.95 219.94 C 791.04 220.93 789.45 222.73 789.59 225.02 C 789.34 234.68 789.62 244.35 789.47 254.02 C 789.57 256.09 789.31 258.49 790.78 260.19 C 792.76 262.02 795.28 263.12 797.58 264.48 C 825.30 280.41 853.05 296.29 880.75 312.24 C 884.59 313.96 884.72 320.01 880.89 321.81 C 863.35 331.63 845.75 341.36 828.17 351.13 C 824.73 353.17 820.33 353.07 816.94 350.99 C 787.89 334.39 758.78 317.88 729.74 301.26 C 726.05 299.29 724.00 295.13 724.25 291.01 C 724.26 257.67 724.25 224.33 724.25 190.98 C 724.14 187.84 725.10 184.57 727.45 182.38 C 729.60 180.48 732.22 179.26 734.68 177.82 C 762.37 161.84 790.05 145.83 817.75 129.86 Z" />
</g>
<g id="#76ac64ff">
<path fill="#76ac64" opacity="1.00" d=" M 335.07 129.90 C 337.63 128.98 340.31 128.68 343.00 129.17 C 344.15 132.42 345.65 135.54 347.48 138.47 C 352.12 146.08 356.31 153.96 361.02 161.53 C 361.35 162.05 362.02 163.10 362.35 163.62 C 361.49 171.40 362.14 179.24 361.91 187.05 C 361.98 238.75 361.78 290.46 362.01 342.17 C 355.16 345.71 348.93 350.59 341.62 353.15 C 339.54 348.98 337.18 344.95 335.04 340.81 C 335.49 338.90 335.98 336.98 336.04 335.02 C 335.85 272.35 336.00 209.67 335.97 147.00 C 335.93 141.39 336.49 135.70 335.13 130.19 L 335.07 129.90 Z" />
</g>
<g id="#6ca25fff">
<path fill="#6ca25f" opacity="1.00" d=" M 343.00 129.17 C 344.09 129.69 345.18 130.22 346.27 130.77 C 374.18 146.83 402.06 162.95 429.97 179.01 C 432.06 180.10 434.02 181.42 435.89 182.87 C 427.95 197.51 419.85 212.07 411.87 226.69 C 406.81 221.44 402.83 215.29 398.55 209.43 C 386.98 193.96 375.53 178.40 364.12 162.83 C 363.52 161.62 362.13 161.72 361.02 161.53 C 356.31 153.96 352.12 146.08 347.48 138.47 C 345.65 135.54 344.15 132.42 343.00 129.17 Z" />
</g>
<g id="#79b560ff">
<path fill="#79b560" opacity="1.00" d=" M 294.69 153.34 C 308.24 145.76 321.56 137.74 335.13 130.19 C 336.49 135.70 335.93 141.39 335.97 147.00 C 336.00 209.67 335.85 272.35 336.04 335.02 C 335.98 336.98 335.49 338.90 335.04 340.81 C 321.53 316.38 308.13 291.89 294.74 267.40 C 295.24 262.62 295.21 257.81 295.12 253.01 C 295.20 223.67 295.06 194.34 295.17 165.00 C 295.20 161.17 295.04 157.33 294.70 153.51 L 294.69 153.34 Z" />
</g>
<g id="#72bd54ff">
<path fill="#72bd54" opacity="1.00" d=" M 273.64 165.57 C 280.66 161.55 287.60 157.38 294.70 153.51 C 295.04 157.33 295.20 161.17 295.17 165.00 C 295.06 194.34 295.20 223.67 295.12 253.01 C 295.21 257.81 295.24 262.62 294.74 267.40 C 289.39 257.83 284.19 248.17 278.86 238.58 C 276.96 235.24 275.19 231.82 273.40 228.42 C 274.69 220.67 273.79 212.80 274.06 204.99 C 273.79 191.86 274.58 178.69 273.64 165.57 Z" />
</g>
<g id="#609857ff">
<path fill="#609857" opacity="1.00" d=" M 361.02 161.53 C 362.13 161.72 363.52 161.62 364.12 162.83 C 375.53 178.40 386.98 193.96 398.55 209.43 C 402.83 215.29 406.81 221.44 411.87 226.69 C 410.07 230.10 408.34 233.54 406.51 236.94 C 402.10 233.67 401.09 227.74 397.23 223.93 C 396.54 229.92 396.88 235.94 396.84 241.95 C 396.90 268.64 396.77 295.34 396.91 322.03 C 391.56 325.03 386.30 328.20 380.96 331.22 C 380.81 289.79 380.93 248.37 380.89 206.94 C 380.82 203.09 381.33 199.16 380.49 195.36 C 378.91 190.44 375.48 186.45 373.05 181.96 C 369.69 175.73 366.09 169.63 362.35 163.62 C 362.02 163.10 361.35 162.05 361.02 161.53 Z" />
</g>
<g id="#6ca260ff">
<path fill="#6ca260" opacity="1.00" d=" M 362.35 163.62 C 366.09 169.63 369.69 175.73 373.05 181.96 C 375.48 186.45 378.91 190.44 380.49 195.36 C 381.33 199.16 380.82 203.09 380.89 206.94 C 380.93 248.37 380.81 289.79 380.96 331.22 C 374.64 334.87 368.32 338.52 362.01 342.17 C 361.78 290.46 361.98 238.75 361.91 187.05 C 362.14 179.24 361.49 171.40 362.35 163.62 Z" />
</g>
<g id="#6ebf4bff">
<path fill="#6ebf4b" opacity="1.00" d=" M 247.29 180.71 C 256.12 175.74 264.84 170.59 273.64 165.57 C 274.58 178.69 273.79 191.86 274.06 204.99 C 273.79 212.80 274.69 220.67 273.40 228.42 C 264.58 212.57 255.89 196.66 247.29 180.71 Z" />
</g>
<g id="#609957ff">
<path fill="#609957" opacity="1.00" d=" M 241.76 189.99 C 241.64 186.09 244.14 182.73 247.29 180.71 C 255.89 196.66 264.58 212.57 273.40 228.42 C 275.19 231.82 276.96 235.24 278.86 238.58 C 277.38 240.94 275.92 243.30 274.51 245.69 C 272.58 242.55 268.82 241.79 265.72 240.30 C 257.67 236.53 249.92 232.14 241.75 228.62 C 241.75 215.74 241.74 202.86 241.76 189.99 Z" />
</g>
<g id="#428741ff">
<path fill="#428741" opacity="1.00" d=" M 435.89 182.87 C 437.59 185.27 438.78 188.05 438.61 191.05 C 438.63 211.74 438.62 232.44 438.62 253.13 C 427.81 247.96 416.97 242.78 406.51 236.94 C 408.34 233.54 410.07 230.10 411.87 226.69 C 419.85 212.07 427.95 197.51 435.89 182.87 Z" />
</g>
<g id="#669f64ff">
<path fill="#669f64" opacity="1.00" d=" M 806.83 227.76 C 812.28 224.87 817.39 221.28 823.02 218.75 C 828.61 221.37 833.75 224.87 839.20 227.80 C 840.27 228.61 842.24 229.14 841.98 230.87 C 842.02 237.29 842.02 243.72 841.98 250.14 C 842.24 251.89 840.18 252.39 839.11 253.22 C 833.68 256.11 828.58 259.61 823.02 262.23 C 816.46 258.98 810.11 255.20 803.94 251.25 C 804.09 244.48 803.94 237.70 804.00 230.92 C 803.66 229.13 805.71 228.57 806.83 227.76 Z" />
<path fill="#669f64" opacity="1.00" d=" M 446.00 339.89 C 449.82 337.59 454.44 336.73 458.83 337.52 C 462.79 338.19 466.15 340.55 469.57 342.50 C 495.51 357.50 521.46 372.49 547.40 387.49 C 550.99 389.53 553.82 392.83 555.25 396.71 C 556.67 400.65 556.21 404.91 556.25 409.02 C 556.26 439.03 556.24 469.04 556.26 499.04 C 556.37 505.27 552.71 511.21 547.33 514.24 C 522.78 528.42 498.22 542.59 473.67 556.77 C 468.17 559.83 462.93 563.66 456.66 565.00 L 454.31 565.00 C 450.27 564.01 446.49 562.20 443.00 559.97 C 435.26 555.37 427.52 550.77 419.74 546.24 C 418.26 545.42 417.03 544.22 415.96 542.93 C 421.50 541.13 426.60 538.32 431.90 536.01 C 438.43 539.38 444.59 543.46 450.96 547.15 C 452.97 548.23 455.33 550.40 457.60 548.59 C 484.66 533.00 511.69 517.34 538.75 501.77 C 540.18 500.97 541.63 499.89 541.23 498.03 C 541.28 466.69 541.23 435.34 541.25 404.00 C 541.55 402.21 540.55 400.73 538.97 400.01 C 511.70 384.31 484.46 368.53 457.18 352.85 C 455.92 351.81 454.41 352.47 453.21 353.20 C 426.18 368.85 399.11 384.44 372.06 400.06 C 371.07 400.71 369.69 401.43 369.91 402.87 C 369.82 435.29 369.91 467.72 369.87 500.14 C 377.09 504.66 384.60 508.69 391.92 513.06 C 396.08 515.52 401.09 517.43 405.95 516.07 C 410.39 514.93 413.76 510.61 413.72 506.02 C 413.83 474.33 413.65 442.63 413.81 410.94 C 414.26 407.12 419.33 408.90 421.97 408.45 C 424.32 408.79 428.92 407.38 429.19 410.90 C 429.34 442.59 429.20 474.29 429.26 505.98 C 429.31 513.38 427.25 521.37 421.46 526.38 C 415.36 531.71 406.65 532.52 398.91 531.57 C 389.70 530.02 381.89 524.58 373.91 520.11 C 370.14 517.85 366.22 515.83 362.52 513.46 C 357.38 510.17 354.52 504.02 354.74 497.99 C 354.76 466.32 354.73 434.64 354.76 402.97 C 354.74 398.90 356.08 394.83 358.68 391.68 C 361.26 388.42 365.14 386.66 368.64 384.61 C 394.42 369.69 420.23 354.82 446.00 339.89 Z" />
<path fill="#669f64" opacity="1.00" d=" M 580.14 382.22 C 589.15 378.91 600.01 385.50 601.11 395.05 C 602.83 404.13 595.26 413.41 586.05 413.61 C 577.72 414.28 569.72 407.40 569.17 399.06 C 568.29 391.77 573.16 384.41 580.14 382.22 M 581.56 384.63 C 575.44 386.27 571.06 392.62 571.90 398.93 C 572.48 405.84 579.16 411.56 586.10 410.87 C 593.74 410.53 599.95 402.67 598.38 395.15 C 597.21 387.63 588.84 382.35 581.56 384.63 Z" />
<path fill="#669f64" opacity="1.00" d=" M 579.12 388.51 C 582.38 388.61 585.70 388.15 588.92 388.85 C 592.56 389.97 592.80 396.03 589.23 397.41 C 591.89 399.68 591.24 403.54 592.07 406.64 C 590.79 406.62 589.53 406.61 588.27 406.62 C 588.12 404.19 587.63 401.80 587.21 399.41 C 585.71 399.49 584.23 399.46 582.75 399.31 C 582.76 401.75 582.73 404.19 582.75 406.63 C 581.53 406.62 580.33 406.62 579.13 406.63 C 579.12 400.59 579.12 394.55 579.12 388.51 M 582.62 391.45 C 582.63 393.11 582.63 394.77 582.62 396.43 C 584.52 396.38 588.06 396.79 587.99 393.95 C 588.40 390.80 584.56 391.59 582.62 391.45 Z" />
<path fill="#669f64" opacity="1.00" d=" M 466.61 406.83 C 478.68 405.28 491.49 405.51 502.89 410.19 C 511.50 413.65 517.61 421.88 518.94 431.00 C 519.10 433.18 520.56 436.44 517.97 437.72 C 513.74 437.98 509.48 438.01 505.26 437.71 C 502.85 435.79 503.32 432.01 501.54 429.55 C 498.29 423.09 490.54 421.31 483.94 420.94 C 476.49 420.62 468.53 420.28 461.68 423.68 C 457.23 425.72 455.46 431.40 457.20 435.81 C 458.54 438.25 461.44 439.08 463.92 439.86 C 477.09 443.33 490.92 443.35 504.02 447.14 C 510.95 449.05 518.34 452.73 521.11 459.84 C 524.48 469.12 522.98 480.65 515.72 487.73 C 508.40 494.89 497.85 497.32 487.94 498.08 C 475.47 498.75 462.22 498.18 450.98 492.16 C 443.18 488.08 437.92 479.91 437.27 471.15 C 437.22 469.16 436.27 465.77 438.97 465.13 C 442.99 464.89 447.05 464.89 451.07 465.14 C 452.85 465.58 452.78 467.67 453.18 469.08 C 453.79 472.73 455.37 476.39 458.37 478.70 C 462.25 481.75 467.30 482.63 472.08 483.17 C 479.45 483.80 486.94 483.88 494.23 482.49 C 498.14 481.67 502.29 480.10 504.55 476.60 C 507.16 472.38 507.00 465.39 501.67 463.41 C 486.29 457.00 468.71 460.01 453.35 453.45 C 447.86 451.19 442.87 446.94 441.14 441.10 C 438.71 433.15 439.79 423.76 445.33 417.33 C 450.63 411.09 458.73 408.11 466.61 406.83 Z" />
</g>
<g id="#518f4bff">
<path fill="#518f4b" opacity="1.00" d=" M 397.23 223.93 C 401.09 227.74 402.10 233.67 406.51 236.94 C 416.97 242.78 427.81 247.96 438.62 253.13 C 438.59 266.32 438.68 279.52 438.60 292.71 C 436.95 290.86 435.38 288.91 434.18 286.74 C 429.38 278.24 424.56 269.74 419.53 261.37 C 415.47 254.61 412.02 247.45 407.28 241.11 C 407.11 266.10 407.24 291.10 407.20 316.09 C 403.76 318.05 400.33 320.03 396.91 322.03 C 396.77 295.34 396.90 268.64 396.84 241.95 C 396.88 235.94 396.54 229.92 397.23 223.93 Z" />
</g>
<g id="#69a45bff">
<path fill="#69a45b" opacity="1.00" d=" M 241.75 228.62 C 249.92 232.14 257.67 236.53 265.72 240.30 C 268.82 241.79 272.58 242.55 274.51 245.69 C 268.22 256.19 262.19 266.84 255.94 277.36 C 251.13 275.69 246.53 273.48 241.75 271.71 C 241.74 257.35 241.75 242.98 241.75 228.62 Z" />
</g>
<g id="#3e863dff">
<path fill="#3e863d" opacity="1.00" d=" M 274.51 245.69 C 275.92 243.30 277.38 240.94 278.86 238.58 C 284.19 248.17 289.39 257.83 294.74 267.40 C 308.13 291.89 321.53 316.38 335.04 340.81 C 337.18 344.95 339.54 348.98 341.62 353.15 C 339.20 353.01 336.68 352.84 334.58 351.49 C 307.50 335.87 280.43 320.24 253.36 304.62 C 249.98 302.57 246.23 300.98 243.52 298.01 L 243.64 297.83 C 247.98 291.15 251.91 284.22 255.94 277.36 C 262.19 266.84 268.22 256.19 274.51 245.69 Z" />
<path fill="#3e863d" opacity="1.00" d=" M 407.28 241.11 C 412.02 247.45 415.47 254.61 419.53 261.37 C 424.56 269.74 429.38 278.24 434.18 286.74 C 435.38 288.91 436.95 290.86 438.60 292.71 C 438.30 296.28 436.11 299.46 433.01 301.19 C 424.40 306.14 415.79 311.10 407.20 316.09 C 407.24 291.10 407.11 266.10 407.28 241.11 Z" />
</g>
<g id="#60ac4eff">
<path fill="#60ac4e" opacity="1.00" d=" M 241.75 271.71 C 246.53 273.48 251.13 275.69 255.94 277.36 C 251.91 284.22 247.98 291.15 243.64 297.83 C 242.59 296.04 241.69 294.09 241.76 291.97 C 241.72 285.22 241.76 278.46 241.75 271.71 Z" />
</g>
</svg>
